{
  "asset": {
    "generator": "Khronos glTF Blender I/O v0.9.21",
    "version": "2.0"
  },
  "scene": 0,
  "scenes": [
    {
      "name": "Scene",
      "nodes": [0, 1, 2]
    }
  ],
  "nodes": [
    {
      "mesh": 0,
      "name": "Quad"
    },
    {
      "name": "Lamp",
      "rotation": [
        0.16907575726509094,
        0.7558803558349609,
        -0.27217137813568115,
        0.570947527885437
      ],
      "translation": [4.076245307922363, 5.903861999511719, -1.0054539442062378]
    },
    {
      "name": "Camera",
      "rotation": [
        0.483536034822464,
        0.33687159419059753,
        -0.20870360732078552,
        0.7804827094078064
      ],
      "translation": [7.481131553649902, 5.34366512298584, 6.5076398849487305]
    }
  ],
  "meshes": [
    {
      "name": "Quad",
      "primitives": [
        {
          "attributes": {
            "POSITION": 0,
            "COLOR_0": 1
          },
          "indices": 2
        }
      ]
    }
  ],
  "accessors": [
    {
      "bufferView": 0,
      "componentType": 5126,
      "count": 6,
      "max": [1, 0, 1],
      "min": [-1, 0, -1],
      "type": "VEC3"
    },
    {
      "bufferView": 1,
      "componentType": 5126,
      "count": 6,
      "type": "VEC4"
    },
    {
      "bufferView": 2,
      "componentType": 5123,
      "count": 6,
      "type": "SCALAR"
    }
  ],
  "bufferViews": [
    {
      "buffer": 0,
      "byteLength": 72,
      "byteOffset": 0
    },
    {
      "buffer": 0,
      "byteLength": 96,
      "byteOffset": 72
    },
    {
      "buffer": 0,
      "byteLength": 12,
      "byteOffset": 168
    }
  ],
  "buffers": [
    {
      "byteLength": 180,
      "uri": "data:application/octet-stream;base64,"
    }
  ]
}
